<svg width="482" height="521" viewBox="0 0 482 521" fill="none" xmlns="http://www.w3.org/2000/svg">
<g clip-path="url(#clip0)">
<path d="M396.964 315.878C408.207 315.878 417.321 307.132 417.321 296.342C417.321 285.553 408.207 276.806 396.964 276.806C385.721 276.806 376.606 285.553 376.606 296.342C376.606 307.132 385.721 315.878 396.964 315.878Z" fill="black" fill-opacity="0.07"/>
<path d="M285 91.2172C158.786 91.2172 63.28 185.683 61.1737 311.639L81.8061 322.95C81.6536 320.596 81.4299 318.271 81.4299 315.878C81.5033 251.172 136.145 198.734 203.572 198.664H366.43C433.888 198.664 488.572 251.143 488.572 315.878C488.572 380.613 433.887 433.092 366.43 433.092H203.571C148.998 433.002 101.093 398.221 86.1613 347.848L61.8038 334.486C69.2138 445.243 144.129 501.467 285 501.467C433.607 501.467 508.929 439.022 508.929 315.878C508.929 187.801 412.66 91.2172 285 91.2172ZM274.821 130.288H295.179C300.8 130.288 305.357 134.661 305.357 140.056C305.357 145.451 300.801 149.824 295.179 149.824H274.821C269.2 149.824 264.643 145.451 264.643 140.056C264.643 134.661 269.2 130.288 274.821 130.288ZM315.536 179.127H254.465C248.844 179.127 244.286 174.754 244.286 169.359C244.286 163.964 248.843 159.591 254.465 159.591H315.536C321.157 159.591 325.715 163.964 325.715 169.359C325.715 174.754 321.157 179.127 315.536 179.127Z" fill="black" fill-opacity="0.07"/>
<path d="M30.5362 247.502C13.6711 247.502 0 260.623 0 276.806V315.877C0 332.061 13.6711 345.181 30.5362 345.181H42.3336C41.3662 335.736 40.7149 326.055 40.7149 315.877C40.6782 292.81 43.7085 269.833 49.7336 247.502H30.5362Z" fill="black" fill-opacity="0.07"/>
<path d="M285 374.485C301.864 374.485 315.536 361.366 315.536 345.181H254.465C254.464 361.365 268.136 374.485 285 374.485Z" fill="black" fill-opacity="0.07"/>
<path d="M173.036 315.878C184.279 315.878 193.394 307.132 193.394 296.342C193.394 285.553 184.279 276.806 173.036 276.806C161.793 276.806 152.679 285.553 152.679 296.342C152.679 307.132 161.793 315.878 173.036 315.878Z" fill="black" fill-opacity="0.07"/>
<path d="M464.886 65.1171C393.455 -3.49929 286.467 -25.0193 192.336 10.2932C98.2048 45.6057 34.7911 131.053 30.79 227.967H51.1475C56.3777 107.729 159.475 12.8359 284.878 12.8359C410.28 12.8359 513.377 107.729 518.608 227.967H539.219C536.868 166.6 510.295 108.385 464.886 65.1171Z" fill="black" fill-opacity="0.07"/>
<path d="M213.75 394.02H183.845C174.988 394.017 166.284 391.798 158.592 387.583L114.825 363.574C132.807 394.414 166.746 413.528 203.572 413.556H366.43C422.645 413.556 468.216 369.824 468.216 315.877C468.216 261.93 422.645 218.198 366.43 218.198H203.571C173.085 218.192 144.203 231.309 124.879 253.937C105.555 276.565 97.8263 306.317 103.821 335.002L168.7 370.576C173.308 373.122 178.529 374.468 183.846 374.483H213.75C219.371 374.483 223.929 378.856 223.929 384.251C223.929 389.647 219.371 394.02 213.75 394.02ZM173.036 335.413C150.55 335.413 132.322 317.92 132.322 296.342C132.322 274.763 150.551 257.271 173.036 257.271C195.521 257.271 213.75 274.763 213.75 296.342C213.75 317.921 195.521 335.413 173.036 335.413ZM396.964 257.27C419.45 257.27 437.678 274.763 437.678 296.341C437.678 317.92 419.449 335.412 396.964 335.412C374.478 335.412 356.25 317.919 356.25 296.341C356.25 274.763 374.479 257.27 396.964 257.27ZM254.464 325.645H315.535C326.778 325.645 335.893 334.392 335.893 345.181C335.893 372.154 313.107 394.02 285 394.02C256.893 394.02 234.107 372.154 234.107 345.181C234.107 334.392 243.222 325.645 254.464 325.645Z" fill="black" fill-opacity="0.07"/>
</g>
<defs>
<clipPath id="clip0">
<rect width="570" height="547" fill="white" transform="translate(0 -26)"/>
</clipPath>
</defs>
</svg>
